<?xml version="1.0" encoding="utf-8"?>
<!-- Generator: Adobe Illustrator 19.2.1, SVG Export Plug-In . SVG Version: 6.00 Build 0)  -->
<svg version="1.1" id="layer" xmlns="http://www.w3.org/2000/svg" xmlns:xlink="http://www.w3.org/1999/xlink" x="0px" y="0px"
	 viewBox="0 0 652 652" style="enable-background:new 0 0 652 652;" xml:space="preserve">
<style type="text/css">
	.st0{fill:none;stroke:#000000;stroke-width:7.4903;stroke-miterlimit:10;}
	.st1{fill:#E72E9D;}
	.st2{fill:#20B1F9;}
	.st3{fill:#095198;}
	.st4{fill:none;stroke:#000000;stroke-width:4.5549;stroke-miterlimit:10;}
</style>
<path class="st0" d="M401.1,320.9c0-14.7,11.7-26.6,26-26.6c14.4,0,26,11.9,26,26.6"/>
<path class="st0" d="M453.2,349.6c0,14.8-11.7,26.8-26,26.8"/>
<path class="st0" d="M394.3,345.8c-11.4,0-20.7-11.7-20.7-26"/>
<path class="st0" d="M427.1,346.2c-14.4,0-26-11.6-26-26"/>
<path class="st0" d="M302.9,320.4c0-14.4,11.6-26,26-26c14.4,0,26,11.6,26,26"/>
<path class="st0" d="M302.9,320.2v29.4"/>
<path class="st0" d="M354.8,319.5v30.1"/>
<path class="st0" d="M553.6,314.9v34.7"/>
<path class="st0" d="M512.2,304.5v45.1"/>
<path class="st0" d="M470.8,314v35.6"/>
<path class="st0" d="M373.5,290.9v29.8"/>
<path class="st0" d="M599.5,346.4h-6"/>
<path class="st0" d="M432.4,346.2h-5.6"/>
<path class="st0" d="M427.7,376.4H416"/>
<path class="st0" d="M453.2,320.6v29.8"/>
<path class="st0" d="M567.7,321.1c0-14.7,11.7-26.6,26-26.6c14.4,0,26,11.9,26,26.6"/>
<path class="st0" d="M593.7,346.4c-14.3,0-26-11.6-26-26"/>
<path class="st0" d="M619.8,320.4v29.8"/>
<path class="st0" d="M470.8,315.3c0-11.6,9.3-21,20.7-21c11.4,0,20.7,9.4,20.7,21"/>
<path class="st0" d="M512.2,315.2c0-11.6,9.3-21,20.7-21c11.4,0,20.7,9.4,20.7,21"/>
<path d="M368.3,278.8c0-2.8,2.3-5.1,5.1-5.1c2.8,0,5.1,2.3,5.1,5.1c0,2.8-2.3,5.1-5.1,5.1C370.6,283.9,368.3,281.6,368.3,278.8z"/>
<path class="st0" d="M290.5,323.4l-30.9,0"/>
<path class="st0" d="M275.9,346.2h-15.5"/>
<path class="st0" d="M234.8,320.9c0-14.7,11.7-26.6,26-26.6c14.4,0,25.9,10.9,25.9,25.6"/>
<path class="st0" d="M260.7,346.2c-14.4,0-26-11.6-26-26"/>
<path class="st1" d="M137.8,299.6l-37.2-22.5l-37.9,22.5l37.3,21.5L137.8,299.6z"/>
<path class="st2" d="M101.3,364.8l37.6-20l1.1-44.6l-39,21.9L101.3,364.8z"/>
<path class="st3" d="M101.2,365.7L99.7,322L62,300.3l-1.5,43L101.2,365.7z"/>
<path class="st4" d="M179.6,369.2v-94.4"/>
<path class="st4" d="M20.9,369.2v-94.4"/>
<path class="st4" d="M99.2,414.7l81.5-47.5"/>
<path class="st4" d="M19.8,276.8l81.6-47.5"/>
<path class="st4" d="M101.4,414.8l-81.6-47.5"/>
<path class="st4" d="M100.4,322.2l78.5-45.7"/>
<path class="st4" d="M100.1,322.2l-78.5-45.7"/>
<path class="st4" d="M180.8,276.8l-81.6-47.5"/>
<path class="st4" d="M138.9,345.6v-46.7"/>
<path class="st4" d="M61.7,345.6v-46.7"/>
<path class="st4" d="M100.7,366.6l39.3-22.9"/>
<path class="st4" d="M60.9,300.2l40.4-23.5"/>
<path class="st4" d="M99.9,366.6l-39.3-22.9"/>
<path class="st4" d="M139.6,300.2l-40.4-23.5"/>
<path d="M103.4,245.6c0,1.7-1.4,3.2-3.2,3.2c-1.7,0-3.2-1.4-3.2-3.2c0-1.7,1.4-3.2,3.2-3.2C102,242.5,103.4,243.9,103.4,245.6z"/>
<path d="M103.4,261.5c0,1.7-1.4,3.2-3.2,3.2c-1.7,0-3.2-1.4-3.2-3.2c0-1.7,1.4-3.2,3.2-3.2C102,258.3,103.4,259.7,103.4,261.5z"/>
<path d="M38.3,359.8c0,1.7-1.4,3.2-3.2,3.2c-1.7,0-3.2-1.4-3.2-3.2c0-1.7,1.4-3.2,3.2-3.2C36.9,356.6,38.3,358,38.3,359.8z"/>
<path d="M51.7,352.3c0,1.7-1.4,3.2-3.2,3.2c-1.7,0-3.2-1.4-3.2-3.2c0-1.7,1.4-3.2,3.2-3.2C50.3,349.1,51.7,350.6,51.7,352.3z"/>
<path d="M168.8,359.7c0,1.7-1.4,3.2-3.2,3.2c-1.7,0-3.2-1.4-3.2-3.2c0-1.7,1.4-3.2,3.2-3.2C167.4,356.5,168.8,357.9,168.8,359.7z"/>
<path d="M155.5,352.2c0,1.7-1.4,3.2-3.2,3.2c-1.7,0-3.2-1.4-3.2-3.2s1.4-3.2,3.2-3.2C154.1,349,155.5,350.5,155.5,352.2z"/>
<path class="st4" d="M100.1,321.8V414"/>
</svg>
